<?xml version="1.0" standalone="no"?>
<!DOCTYPE svg PUBLIC "-//W3C//DTD SVG 20010904//EN"
 "http://www.w3.org/TR/2001/REC-SVG-20010904/DTD/svg10.dtd">
<svg version="1.0" xmlns="http://www.w3.org/2000/svg"
 width="180.000000pt" height="180.000000pt" viewBox="0 0 180.000000 180.000000"
 preserveAspectRatio="xMidYMid meet">
<metadata>
Created by potrace 1.14, written by Peter Selinger 2001-2017
</metadata>
<g transform="translate(0.000000,180.000000) scale(0.100000,-0.100000)"
fill="#000000" stroke="none">
<path d="M575 1790 c-223 -46 -370 -224 -373 -450 l-1 -55 15 70 c8 39 17 76
19 83 2 7 5 16 6 20 1 4 17 30 35 59 87 136 226 204 404 198 103 -4 134 -10
229 -41 174 -58 323 -160 477 -326 95 -102 196 -282 228 -404 33 -129 14 -269
-48 -336 -95 -104 -231 -121 -435 -53 -28 9 -51 20 -51 24 0 5 27 27 60 50 65
46 81 77 60 116 -15 29 -29 31 -216 30 l-152 -1 -51 162 c-45 142 -54 162 -78
173 -49 22 -71 -7 -128 -170 -27 -79 -53 -149 -57 -155 -4 -6 -64 -10 -165 -9
-151 1 -159 0 -181 -22 -44 -44 -29 -71 79 -144 35 -23 66 -46 67 -51 2 -4 9
-8 15 -8 7 -1 30 -16 52 -35 l39 -34 -47 -155 c-26 -85 -47 -162 -47 -170 0
-22 36 -56 59 -56 14 0 182 109 226 147 6 5 24 17 41 27 25 15 34 16 45 7 44
-39 254 -181 268 -181 9 0 27 7 40 16 19 14 22 22 17 58 -3 22 -8 52 -12 65
-6 21 -5 22 12 13 71 -38 248 -61 369 -48 194 21 360 176 393 366 15 84 2 300
-19 326 -5 6 -7 13 -4 16 9 8 -63 175 -107 252 -114 197 -294 377 -493 494
-78 46 -219 105 -280 117 -22 5 -47 10 -55 12 -34 8 -218 10 -255 3z"/>
</g>
</svg>
